<svg id="Layer_1" data-name="Layer 1" xmlns="http://www.w3.org/2000/svg" viewBox="0 0 192 192"><path d="M95.27,173a112.92,112.92,0,0,1-21.82-1.26c-6.33-1-12.51-2.62-17.85-6.44-.6-.42-1.17-.93-1.74-1.41-.23-.21-.56-.5-.53-.74.24-1.68-1-1.5-2-1.68C37.24,158.83,27.24,151,21.51,137.75a5.32,5.32,0,0,1,.71-5.85c2.93-3.4,4.48-7.46,6-11.52,4.9-13.22,9.61-26.51,14.39-39.76a10.15,10.15,0,0,1,3.14-4.86,1.83,1.83,0,0,0,.38-1.23A59,59,0,0,1,49.42,53.4C53.92,40.8,62.31,31.91,74.79,27a62.8,62.8,0,0,1,12.12-3.22,3,3,0,0,0,1.67-.87,5,5,0,0,1,3.94-2.06q3-.09,6.09.09a4.56,4.56,0,0,1,3.28,1.82,3.38,3.38,0,0,0,1.7,1c8.57,1.4,16.54,4.18,23.47,9.61a43.36,43.36,0,0,1,14.38,20.77,61.92,61.92,0,0,1,3.11,20.48,3.46,3.46,0,0,0,.66,1.46c.89,1.5,2.14,2.84,2.74,4.45,4.12,11.34,8.06,22.75,12.18,34.09,1.55,4.3,3.4,8.51,5.25,12.72a16.57,16.57,0,0,0,2.33,3.64c1.91,2.36,2.45,4.74,1.14,7.61-6.06,13.19-16.27,20.84-30.57,23.13-.6.09-.87.24-.95.9a2.78,2.78,0,0,1-.81,1.55c-3.91,3.49-8.69,5.25-13.67,6.51a92,92,0,0,1-23.23,2.42C98.16,173,96.7,173,95.27,173Zm72.83-35.73a2.33,2.33,0,0,0,.24-.48c.6-1.94-.15-3.49-1.28-5a13.1,13.1,0,0,1-2-2.89c-3-7.14-6-14.21-8.69-21.46-3.28-8.84-6.24-17.82-9.43-26.69a13,13,0,0,0-2.3-3.76c-.54-.66-1.49-1-1.29-2.09,0-.15-.29-.45-.5-.57A4.53,4.53,0,0,1,141,70.71c-.18-1.88-.3-3.76-.6-5.61a61.39,61.39,0,0,0-5.67-16.39,35.59,35.59,0,0,0-9.94-12.66c-6.21-4.95-13.43-7.28-21.2-8.2a5,5,0,0,0-.92.06c0,.53,0,.95,0,1.37-.12,1.25.33,1.82,1.67,2.09a28.56,28.56,0,0,1,18.12,11.7c.84,1.16,1.55,2.42,2.33,3.64,2.18-1.46,3.16-1.22,4.57,1a2.3,2.3,0,0,1,.23.41c1,2.72,2.12,5.41,3,8.15.6,1.91-.42,3-2.42,2.72-1.34-.21-2.63-.72-4-1-8.45-2.23-16.33-1.64-23.19,4.39a6,6,0,0,1-1.5.93,1.26,1.26,0,0,1-1.88-.81,4.5,4.5,0,0,1-.2-1.37c-.3-9.79-.57-19.61-.87-29.4a33.69,33.69,0,0,0-.42-4.93A2.8,2.8,0,0,0,96.85,25c-2.36-1.19-4.48.12-4.63,2.75-.21,4.15-.45,8.29-.57,12.44-.23,6.75-.38,13.5-.56,20.24,0,1.05.27,2.24-.87,2.84s-1.94-.45-2.8-1A62.67,62.67,0,0,0,81,58.35c-4.78-2.15-9.79-1.88-14.78-.86-1.88.38-3.67,1.13-5.55,1.49-2.36.45-3.37-.78-2.66-3.08a60.32,60.32,0,0,1,2.12-6,15.54,15.54,0,0,1,2.33-3.64,1.78,1.78,0,0,1,2.63-.09c.21.15.42.33.68.54.24-.42.45-.81.69-1.16a63.45,63.45,0,0,1,3.88-5.32,28.9,28.9,0,0,1,16.33-9.1,1.52,1.52,0,0,0,1.07-.81,13.67,13.67,0,0,0,.15-2.56,9.51,9.51,0,0,0-1.31,0c-2.81.53-5.64.95-8.39,1.73-7.64,2.24-14.09,6.39-18.65,13a54.25,54.25,0,0,0-9.94,27.4c-.09,1.32-.15,2.69-1.26,3.71-.65.62-1.61,1-1.31,2.23,0,.12-.18.36-.33.45-1.82,1-2.54,2.72-3.19,4.51C38.82,93.87,34.16,107,29.36,120c-1.58,4.3-3.14,8.72-6.3,12.27a5.54,5.54,0,0,0-.9,1.76,3.35,3.35,0,0,0,.3,3.11c1.29-2.18,2.54-4.3,3.76-6.42a104.74,104.74,0,0,0,10.3-23.91,115.21,115.21,0,0,1,9-23.31c3-5.71,6.5-11,11.4-15.29S67.15,61.73,73.6,62a29.33,29.33,0,0,1,12.92,4,4.36,4.36,0,0,0,2.66.6c2.15-.18,4.33-.3,6.15,1.08,2-1.44,4.23-1.14,6.44-1.08a5,5,0,0,0,1.88-.36c2.24-.92,4.39-2.15,6.66-2.89A22.14,22.14,0,0,1,129.15,65c5.28,3,9.1,7.49,12.38,12.51a96.47,96.47,0,0,1,11.71,26.59A114.32,114.32,0,0,0,164,130C165.29,132.47,166.67,134.83,168.1,137.28ZM86.31,95.78c-.06-.08-.09-.14-.15-.23l-29,5.52c4.86,5.19,9.58,10.18,14.36,15.28C76.52,109.43,81.42,102.62,86.31,95.78Zm32.78,20.6c4.83-5.13,9.52-10.15,14.35-15.31-9.85-1.88-19.43-3.7-29.37-5.61C109.15,102.59,114.07,109.4,119.09,116.38ZM72,132.53c-.12-.06-.27-.09-.39-.15a14.07,14.07,0,0,0-1.31,1.88A43.15,43.15,0,0,0,67.6,140c-2.15,6.39-4.09,12.84-6.12,19.26a2.19,2.19,0,0,0,.74,2.65,52.64,52.64,0,0,0,5.08,2.87c.86.48,1.28.15,1.22-.87-.3-8.74,1-17.34,2.54-25.94C71.36,136.11,71.71,134.32,72,132.53Zm46.87-.24-.33.15c.06.39.12.81.18,1.19,1,6.66,2.15,13.32,2.95,20,.42,3.38.3,6.81.42,10.21,0,.54-.12,1.41.75,1a39.44,39.44,0,0,0,5.52-3,2.23,2.23,0,0,0,.69-2.74c-1.11-3.65-2.06-7.32-3.17-11a65.9,65.9,0,0,0-5.28-13.28C120.1,134,119.47,133.13,118.91,132.29Zm-37.2-40c0-.21-.09-.42-.12-.62a11.7,11.7,0,0,0-1.28.2c-7,1.88-13.55,1.23-19.46-3.13-6.12-4.54-6.09-12.21-.09-16.87,7.1-5.49,18.54-5.52,25.73,0l.9.62a7.4,7.4,0,0,0-1.8-2.21c-3.22-2.71-7.13-3.67-11.19-4.15s-8.18,0-11.64,2.6c-5.19,3.82-7.43,9.28-7.85,15.52-.24,3.56,1.76,5.7,5.25,6.42,1,.21,1.91.39,2.87.66a1.84,1.84,0,0,1,1.49,1.88c0,1.19.66,1.55,1.64,1.46,3.58-.33,7.17-.6,10.75-1.07A29.75,29.75,0,0,0,81.71,92.26Zm21.71-20.12a21.5,21.5,0,0,1,11.31-4.3c5.64-.44,10.86.63,15.37,4.24,4,3.17,5.31,7.91,3.34,12.15a12.88,12.88,0,0,1-5.94,6,22.51,22.51,0,0,1-17.43,1.58,4.32,4.32,0,0,0-1,0c.27.21.47.54.77.66a46.32,46.32,0,0,0,14.84,2.12c.83,0,1.43-.27,1.4-1.28a2,2,0,0,1,1.49-2,11,11,0,0,1,1.94-.48c4.51-.66,6.45-2.87,6.18-7.4a21.45,21.45,0,0,0-3.82-10.72A14,14,0,0,0,126,67.55c-6.36-2.87-12.54-1.73-18.59,1.07A8.48,8.48,0,0,0,103.42,72.14ZM100.31,125v-1.32c0-5.67-.06-11.37,0-17,0-1.94-1.1-3.46-3.46-2.69v21Zm-6.69,0V103.81c-2.68-.26-3.4.36-3.4,3V125Zm10.09-15-.23.09V125h3.4V114.59a1.16,1.16,0,0,0-.18-.54C105.68,112.68,104.7,111.34,103.71,110Zm14.21,21.56-.24-.42a11,11,0,0,0-1.19.59q-10,8-20,16a1.06,1.06,0,0,1-1.55,0c-1.26-1-2.54-2-3.82-2.92L73.39,131.4a5.6,5.6,0,0,0-1-.45l-.18.36c7.79,6,15.58,12.09,23.46,18.17ZM87,125v-15c-2.27,2.39-4,4.84-3.41,8.3a16.4,16.4,0,0,1,0,2.72v4C84.85,125,85.92,125,87,125Zm20.89,12a2.27,2.27,0,0,0,0-.45h-7.49v-.24l9-.45a1.34,1.34,0,0,0,0-.35h-28v.35l10,.45v.24H83.86V137Q95.91,137,107.89,137ZM73.06,88.92a14.48,14.48,0,0,0,1.79-.15c.33-.09.89-.33.89-.54a1.38,1.38,0,0,0-.47-1.07,6.42,6.42,0,0,0-2-.84c-3-.62-6.18-.92-9-2.48-.39-.2-1,0-1.55,0,.21.51.27,1.2.66,1.47A17.76,17.76,0,0,0,73.06,88.92Zm44.24,0c3.22.18,7.7-2,9.64-3.28a2.68,2.68,0,0,0,.8-.84,1.14,1.14,0,0,0,.18-.84,1.12,1.12,0,0,0-.8-.26A3.62,3.62,0,0,0,126,84a23.3,23.3,0,0,1-3,1.14c-1.85.48-3.76.74-5.61,1.19a7.17,7.17,0,0,0-2.09.93,1.2,1.2,0,0,0-.39,1c0,.21.51.42.83.51C116.19,88.89,116.76,88.86,117.3,88.92ZM76,131.43a331.24,331.24,0,0,0,38.72,0Q95.38,130.53,76,131.43Zm-2-2.78c.06.09.12.15.18.24h41.49c0-.12,0-.27.06-.39a6.85,6.85,0,0,0-1.34-.24H75.62a3.13,3.13,0,0,0-.92,0C74.43,128.29,74.25,128.5,74,128.65Zm39,4.24c-4.06-.66-32.45-.63-35.43.06A329.56,329.56,0,0,0,113,132.89ZM101.51,86.38c-.48-.89-.78-1.58-1.2-2.24a1.55,1.55,0,0,0-.89-.59,18.86,18.86,0,0,0-8.39.18,1.26,1.26,0,0,0-.81.56c-.42.63-.77,1.35-1.28,2.27C93.18,85.1,97.27,84.77,101.51,86.38Zm9.73,48c0-.12,0-.27,0-.39H79.48v.36A295.15,295.15,0,0,0,111.24,134.41ZM76,130a329.64,329.64,0,0,0,39.26,0Zm15-51.4c0,.78.06,1.4.09,2.18a14.33,14.33,0,0,1,8.3-.27c-.39-.72,1-1.82-.57-2.21A14.3,14.3,0,0,0,91,78.59Zm-1.82,21.85c-.36.45-.54.69-.72.93-2.39,3.25-4.81,6.5-7.19,9.73-2.69,3.67-5.41,7.31-8.09,11a5.48,5.48,0,0,0-.42,1C74.37,122.08,89.15,101.61,89.21,100.44Zm28.18,22.21c-5.14-7.49-10.6-14.78-16.09-22.3C101.3,101.49,115.59,121.43,117.39,122.65ZM69,129.07a2.31,2.31,0,0,0,2.27-2.24,2.37,2.37,0,0,0-2.36-2.27,2.31,2.31,0,0,0-2.18,2.3A2.26,2.26,0,0,0,69,129.07Zm54.06-2.24a2.3,2.3,0,0,0-2.27-2.24,2.24,2.24,0,0,0,0,4.48A2.3,2.3,0,0,0,123.09,126.83ZM110.28,119c-.06.06-.15.09-.21.15V125h4.6C113.12,122.83,111.71,120.89,110.28,119Zm-25,19.37v.3c2.47.6,19.46.51,20.83-.3ZM80.46,125v-6.33c-1.64,2.24-3.07,4.21-4.63,6.33Zm6.51,15v.33H104v-.33A135,135,0,0,0,87,139.9Zm35.16-22.68.21.21c4.54-4.66,9-9.32,13.55-14,.18-.18.12-.6.15-.9-.09,0-.18,0-.27-.06C131.24,107.4,126.7,112.29,122.13,117.22Zm-53.28.83.18-.18c-4.75-5.13-9.49-10.26-14.27-15.37-.12.09-.27.15-.39.24a4.15,4.15,0,0,0,.54,1c1.52,1.62,3.1,3.23,4.66,4.84Q64.22,113.26,68.85,118.05ZM99.42,92c-.24-.53-.27-.95-.51-1.16a5.82,5.82,0,0,0-7.35.09c-.17.15-.2.48-.32.75.27,0,.59.14.77,0a5.85,5.85,0,0,1,4.27-.81A23.66,23.66,0,0,1,99.42,92Zm-8.3-18.5c.74-.18,2,0,2-1.17,0-1-1.23-1-2.09-1s-2.12,0-2.15,1.07S90.1,73.37,91.12,73.46ZM99.83,71c-1,.39-2.32.27-2.32,1.37s1.22,1.11,2.11,1.11,2.06,0,2.06-1.14C101.71,71.84,100.49,71.4,99.83,71Zm2.51,70.71v-.32H88.79v.32Zm-1.79,1.41v-.3H90.61v.3Zm-1.7,1.37a.83.83,0,0,0,0-.27H92.37v.27Zm10-58.95c-.33,1-.39,1.67.57,1.94.32.09,1.1-.18,1.1-.36C110.67,85.93,109.62,86,108.82,85.49Zm-27,.06C81,85.87,80,85.93,80,87c0,.18.66.51,1,.48C82.07,87.31,82.1,86.56,81.8,85.55Zm12.39,60v.27h2.93v-.27Z"/></svg>