<svg id="Layer_1" data-name="Layer 1" xmlns="http://www.w3.org/2000/svg" viewBox="0 0 512 512"><path d="M254.37,464.32c-20.12.58-40.16-.16-60-3.45-17.41-2.87-34.41-7.22-49.11-17.73-1.64-1.15-3.2-2.55-4.77-3.86-.65-.58-1.56-1.4-1.47-2.06.65-4.6-2.8-4.1-5.42-4.6-38.85-7.31-66.36-28.82-82.13-65.28-2.54-5.92-1.88-11.58,2-16.1,8-9.36,12.31-20.53,16.42-31.7,13.47-36.38,26.44-72.92,39.58-109.39,1.89-5.17,4.19-9.93,8.63-13.38.73-.58,1.06-2.22,1.06-3.37-.33-20,2.38-39.42,9.12-58.14,12.4-34.66,35.48-59.13,69.8-72.76,10.76-4.27,22-6.82,33.34-8.87a8.28,8.28,0,0,0,4.6-2.38,13.83,13.83,0,0,1,10.84-5.67q8.38-.24,16.76.25c3.69.16,6.57,2.13,9,5a9.26,9.26,0,0,0,4.68,2.79c23.57,3.86,45.5,11.5,64.55,26.44s31.86,34.33,39.58,57.16A170.14,170.14,0,0,1,390,193.57c0,1.31,1.07,2.71,1.81,4,2.46,4.11,5.91,7.8,7.55,12.24,11.34,31.2,22.18,62.57,33.51,93.78,4.27,11.83,9.36,23.4,14.45,35a43.91,43.91,0,0,0,6.41,10c5.25,6.49,6.73,13.06,3.12,20.94-16.67,36.3-44.76,57.32-84.09,63.65-1.65.24-2.39.66-2.63,2.46a7.69,7.69,0,0,1-2.22,4.27c-10.76,9.61-23.9,14.46-37.61,17.9-20.94,5.26-42.29,6.82-63.89,6.66C262.33,464.32,258.31,464.32,254.37,464.32ZM454.75,366a6.42,6.42,0,0,0,.65-1.31c1.65-5.34-.41-9.61-3.53-13.8-2-2.54-4.27-5-5.5-8-8.13-19.63-16.51-39.09-23.9-59.05-9-24.31-17.16-49-26-73.42a35.52,35.52,0,0,0-6.32-10.34c-1.48-1.81-4.11-2.63-3.53-5.75.08-.41-.82-1.23-1.4-1.56-3.53-2.38-4.76-5.92-5.17-9.94-.5-5.17-.82-10.35-1.65-15.44-2.62-15.93-8.7-30.63-15.6-45.08A97.46,97.46,0,0,0,335.5,87.55c-17.08-13.64-36.95-20-58.3-22.59a14.19,14.19,0,0,0-2.55.17c0,1.48.08,2.63,0,3.77-.33,3.45.91,5,4.6,5.75,20.7,4.27,37.53,14.87,49.85,32.2,2.3,3.2,4.27,6.65,6.4,10,6-4,8.71-3.36,12.57,2.88a5.39,5.39,0,0,1,.66,1.15c2.79,7.47,5.83,14.86,8.29,22.42,1.64,5.25-1.15,8.29-6.65,7.47-3.7-.57-7.23-2-10.92-2.87-23.24-6.16-44.92-4.52-63.81,12.07a16,16,0,0,1-4.11,2.54c-2.46,1.15-4.27.17-5.17-2.21a11.76,11.76,0,0,1-.58-3.78c-.82-26.94-1.56-54-2.38-80.89a92.78,92.78,0,0,0-1.15-13.55,7.77,7.77,0,0,0-3.53-4.93c-6.49-3.28-12.32.33-12.73,7.56-.57,11.41-1.23,22.83-1.56,34.24-.66,18.56-1.07,37.12-1.56,55.68-.08,2.87.74,6.16-2.38,7.8s-5.34-1.23-7.72-2.71c-5.83-3.61-11.33-8-17.57-10.84-13.14-5.91-26.94-5.17-40.65-2.38-5.18,1.07-10.11,3.12-15.28,4.11-6.49,1.23-9.28-2.14-7.31-8.46a156.57,156.57,0,0,1,5.83-16.43,41.54,41.54,0,0,1,6.41-10c2-2.38,4.76-2.13,7.22-.24.58.41,1.15.9,1.89,1.48.66-1.15,1.24-2.22,1.89-3.21,3.53-4.92,6.65-10.1,10.68-14.61,12-13.55,27.35-21.44,44.92-25,1.15-.25,2.71-1.23,3-2.22.49-2.13.32-4.43.41-7.06a25.61,25.61,0,0,0-3.62,0c-7.72,1.48-15.52,2.63-23.07,4.76-21,6.16-38.77,17.58-51.33,35.72C140.46,128,130.77,153,128.8,180.67c-.24,3.62-.41,7.39-3.45,10.19-1.8,1.72-4.43,2.87-3.61,6.16.08.32-.49,1-.9,1.23-5,2.71-7,7.47-8.79,12.4-13,36-25.79,72-39,107.91-4.35,11.82-8.62,24-17.33,33.75a15.27,15.27,0,0,0-2.46,4.84c-1,2.88-1.07,5.83.82,8.54,3.53-6,7-11.82,10.35-17.65,11.83-20.86,21.93-42.46,28.33-65.78a316.9,316.9,0,0,1,24.8-64.14c8.22-15.68,17.91-30.3,31.37-42.05,13.14-11.49,28.09-17.9,45.83-17.08,12.73.58,24.47,4.77,35.56,10.92a12,12,0,0,0,7.31,1.65c5.91-.5,11.9-.82,16.91,2.95,5.59-3.94,11.66-3.12,17.74-2.95a13.71,13.71,0,0,0,5.17-1c6.16-2.54,12.08-5.91,18.32-8,17.82-5.92,35.23-4.93,51.82,4.68,14.53,8.37,25,20.61,34.08,34.41,14.78,22.58,24.8,47.38,32.19,73.17,7.14,25,16.59,48.78,29.48,71.2C447,352.8,450.8,359.29,454.75,366Zm-225-114.15c-.16-.24-.24-.41-.41-.65L149.5,266.41c13.38,14.29,26.36,28,39.5,42C202.8,289.4,216.26,270.68,229.73,251.87Zm90.17,56.67c13.31-14.13,26.2-27.92,39.5-42.13-27.1-5.18-53.46-10.18-80.81-15.44C292.56,270.6,306.11,289.32,319.9,308.54ZM190.48,353c-.33-.17-.74-.25-1.07-.42a36.75,36.75,0,0,0-3.61,5.18c-2.63,5.17-5.75,10.26-7.56,15.68-5.91,17.58-11.25,35.32-16.83,53-.91,2.88-.41,5.67,2.05,7.31a143.44,143.44,0,0,0,14,7.88c2.38,1.32,3.53.42,3.37-2.38-.82-24.06,2.79-47.71,7-71.36C188.59,362.82,189.57,357.89,190.48,353Zm128.93-.66c-.33.16-.58.24-.9.41.16,1.07.32,2.22.49,3.28,2.79,18.32,5.91,36.63,8.13,55,1.15,9.28.82,18.72,1.15,28.08.08,1.48-.33,3.86,2.05,2.79a108.56,108.56,0,0,0,15.19-8.29c2.47-1.56,2.88-4.52,1.89-7.56-3-10-5.66-20.12-8.7-30.14-3.86-12.56-8-25-14.54-36.54C322.69,356.91,321,354.61,319.41,352.31ZM217.08,242.18c-.08-.57-.24-1.15-.32-1.72a25.19,25.19,0,0,0-3.53.57c-19.14,5.18-37.29,3.37-53.55-8.62-16.83-12.48-16.75-33.59-.24-46.4,19.54-15.11,51-15.19,70.78-.16l2.47,1.72a20.3,20.3,0,0,0-4.93-6.08c-8.87-7.47-19.63-10.1-30.8-11.41-11.49-1.4-22.5.08-32,7.14-14.29,10.52-20.45,25.54-21.6,42.71-.66,9.77,4.84,15.68,14.45,17.65,2.63.58,5.26,1.07,7.89,1.81,2.46.74,4.18,2.38,4.1,5.17-.08,3.29,1.81,4.27,4.52,4,9.85-.91,19.71-1.64,29.56-3C208.38,245.14,212.73,243.41,217.08,242.18Zm59.71-55.35A58.94,58.94,0,0,1,307.91,175c15.52-1.24,29.89,1.72,42.29,11.66,10.93,8.7,14.62,21.76,9.2,33.42-3.45,7.39-9.28,12.73-16.34,16.43-15.36,8-31.37,9.19-48,4.35a10.53,10.53,0,0,0-2.79.08c.74.58,1.31,1.48,2.13,1.81,13.23,4.35,26.94,5.91,40.82,5.83,2.3,0,3.94-.74,3.86-3.53s1.56-4.68,4.1-5.59a30,30,0,0,1,5.34-1.31c12.4-1.81,17.74-7.89,17-20.37-.66-10.76-4.52-20.53-10.51-29.48A38.71,38.71,0,0,0,339,174.19c-17.49-7.89-34.49-4.77-51.16,2.95A23.45,23.45,0,0,0,276.79,186.83Zm-8.54,145.28v-3.62c0-15.6-.17-31.29.08-46.89.08-5.34-3-9.53-9.53-7.39v57.9Zm-18.4,0V274c-7.39-.74-9.36,1-9.36,8.22v49.93ZM277.61,291c-.25.09-.41.17-.66.25v41h9.36V303.61a3.14,3.14,0,0,0-.49-1.48C283,298.35,280.32,294.66,277.61,291Zm39.09,59.3c-.25-.42-.41-.74-.66-1.15a23.35,23.35,0,0,0-3.28,1.64q-27.6,21.93-55,44.1c-1.57,1.23-2.71,1.23-4.28,0-3.44-2.79-7-5.42-10.51-8.05l-48.78-37a15.38,15.38,0,0,0-2.63-1.23l-.49,1c21.44,16.59,42.87,33.26,64.55,50Q286.16,374.85,316.7,350.26Zm-85.08-18.15V290.8c-6.24,6.57-11.09,13.3-9.36,22.83.41,2.38.08,4.93.08,7.47v11.09C225.71,332.11,228.66,332.11,231.62,332.11Zm57.49,33.09A5.67,5.67,0,0,0,289,364H268.41v-.66l24.8-1.23a4,4,0,0,0-.08-1H216.18v1l27.59,1.23V364H223v1.15Q256.14,365.24,289.11,365.2ZM193.27,233a38.68,38.68,0,0,0,4.93-.41c.9-.24,2.46-.9,2.46-1.47a3.84,3.84,0,0,0-1.31-3,17.49,17.49,0,0,0-5.59-2.3c-8.37-1.72-17-2.55-24.72-6.82-1.06-.57-2.87,0-4.27,0,.58,1.4.74,3.29,1.81,4C174.63,228.88,183.58,232.57,193.27,233ZM315,233c8.87.5,21.19-5.42,26.53-9a7.39,7.39,0,0,0,2.22-2.3,3.1,3.1,0,0,0,.49-2.3,3.17,3.17,0,0,0-2.22-.74,10.25,10.25,0,0,0-3,.91c-2.79,1.06-5.5,2.46-8.37,3.12-5.09,1.31-10.35,2.05-15.44,3.28a20,20,0,0,0-5.75,2.55,3.33,3.33,0,0,0-1.07,2.79c.08.58,1.4,1.15,2.3,1.4C311.94,232.9,313.5,232.82,315,233Zm-113.57,117a905.44,905.44,0,0,0,106.51,0Q254.71,347.45,201.4,349.93Zm-5.5-7.64c.16.25.33.41.49.66H310.54c.08-.33.08-.74.16-1.07a19.08,19.08,0,0,0-3.69-.66H200.33a8.92,8.92,0,0,0-2.54.08C197.05,341.3,196.55,341.88,195.9,342.29ZM303.07,354c-11.17-1.81-89.27-1.72-97.48.16A895,895,0,0,0,303.07,354ZM271.53,226c-1.31-2.46-2.13-4.35-3.28-6.15a4.32,4.32,0,0,0-2.47-1.65,52.08,52.08,0,0,0-23.07.5,3.59,3.59,0,0,0-2.22,1.56c-1.15,1.72-2.14,3.69-3.53,6.24C248.62,222.47,259.87,221.57,271.53,226ZM298.3,358.14c0-.33-.08-.74-.08-1.07H210.93v1A816.13,816.13,0,0,0,298.3,358.14Zm-97-12.16a909,909,0,0,0,108,0Zm41.39-141.41c.08,2.14.16,3.86.24,6a39.26,39.26,0,0,1,22.83-.74c-1.06-2,2.63-5-1.56-6.08C257.16,201.86,250.1,202.44,242.71,204.57Zm-5,60.11c-1,1.24-1.48,1.89-2,2.55-6.57,8.95-13.23,17.9-19.79,26.77-7.4,10.1-14.87,20.12-22.26,30.22a15.41,15.41,0,0,0-1.15,2.63C196.88,324.22,237.53,267.89,237.7,264.68Zm77.52,61.1c-14.12-20.61-29.15-40.65-44.26-61.34C271,267.56,310.29,322.42,315.22,325.78Zm-133,17.66a6.33,6.33,0,0,0,6.24-6.16,6.5,6.5,0,0,0-6.48-6.24,6.37,6.37,0,0,0-6,6.32A6.21,6.21,0,0,0,182.18,343.44Zm148.73-6.16a6.33,6.33,0,0,0-6.25-6.16,6.16,6.16,0,0,0,.09,12.32A6.32,6.32,0,0,0,330.91,337.28ZM295.68,315.6c-.17.16-.41.25-.58.41v16.1h12.65C303.48,326.28,299.62,320.94,295.68,315.6Zm-68.74,53.3v.82c6.82,1.64,53.54,1.39,57.32-.82Zm-13.3-36.79V314.7c-4.52,6.16-8.46,11.58-12.73,17.41Zm17.9,41.14v.9h47v-.9A371.78,371.78,0,0,0,231.54,373.25Zm96.74-62.41.57.57q18.73-19.21,37.29-38.51c.49-.5.32-1.65.41-2.47-.25-.08-.5-.08-.74-.16C353.33,283.82,340.84,297.29,328.28,310.84Zm-146.59,2.3.49-.5q-19.58-21.18-39.25-42.29c-.33.25-.74.41-1.07.66a12.07,12.07,0,0,0,1.48,2.71c4.19,4.43,8.54,8.87,12.81,13.3Q169,300,181.69,313.14Zm84.09-71.78c-.65-1.48-.74-2.63-1.39-3.2-5.42-4.76-14.62-4.6-20.2.24-.5.42-.58,1.32-.91,2.06.74,0,1.64.41,2.14.08a16.1,16.1,0,0,1,11.74-2.22C259.79,238.82,262.17,240.05,265.78,241.36ZM243,190.45c2.06-.5,5.59-.09,5.42-3.21-.08-2.71-3.36-2.87-5.75-2.87s-5.83.08-5.91,2.95C236.71,190.36,240.16,190.2,243,190.45Zm24-6.9c-2.87,1.06-6.4.74-6.4,3.77s3.36,3,5.83,3,5.66,0,5.66-3.12C272.11,186,268.74,184.78,266.93,183.55Zm6.9,194.54v-.9H236.55v.9ZM268.9,382v-.82H241.56V382Zm-4.68,3.78a2.37,2.37,0,0,0-.08-.74H246.4v.74Zm27.43-162.19c-.9,2.63-1.07,4.6,1.56,5.34.91.24,3-.49,3-1C296.74,224.77,293.87,224.85,291.65,223.54Zm-74.32.16c-2.3.91-4.84,1.07-4.84,4,0,.49,1.8,1.4,2.62,1.31C218.07,228.55,218.15,226.5,217.33,223.7Zm34.08,165.15v.74h8v-.74Z"/></svg>